<?xml version="1.0" standalone="no"?>
<!DOCTYPE svg PUBLIC "-//W3C//DTD SVG 20010904//EN"
 "http://www.w3.org/TR/2001/REC-SVG-20010904/DTD/svg10.dtd">
<svg version="1.0" xmlns="http://www.w3.org/2000/svg"
 width="523.000000pt" height="523.000000pt" viewBox="0 0 523.000000 523.000000"
 preserveAspectRatio="xMidYMid meet">
<metadata>
Created by potrace 1.14, written by Peter Selinger 2001-2017
</metadata>
<g transform="translate(0.000000,523.000000) scale(0.100000,-0.100000)"
fill="#000000" stroke="none">
<path d="M230 4622 l0 -609 57 -79 c74 -102 142 -246 173 -366 6 -24 27 -80
47 -126 l35 -83 -15 -57 c-21 -77 -28 -128 -20 -148 4 -11 13 16 24 70 23 109
43 148 33 61 -11 -82 -11 -116 -1 -215 16 -174 96 -424 158 -493 20 -23 40
-39 45 -34 4 4 -3 18 -15 31 -13 14 -20 29 -17 35 4 5 -2 25 -13 43 -37 66
-53 149 -57 283 -3 115 -2 122 6 58 26 -205 83 -397 136 -459 32 -36 30 -18
-5 52 -31 63 -64 163 -75 229 l-7 40 32 -50 c35 -56 65 -85 86 -85 9 0 2 13
-17 33 -44 45 -98 162 -105 227 l-7 55 23 -45 c26 -53 28 -55 33 -49 3 2 -4
29 -14 59 -27 78 -27 254 0 395 31 157 35 157 35 5 0 -98 4 -143 13 -152 9
-10 12 8 13 88 0 54 2 110 4 124 3 14 7 42 10 63 14 95 92 267 136 299 14 10
76 27 144 38 126 22 369 80 432 104 21 8 63 21 93 30 30 9 138 57 240 107 243
119 288 136 396 144 83 6 293 30 357 40 20 3 27 0 27 -11 0 -10 6 -14 18 -10
34 10 72 18 99 21 15 1 80 10 144 18 63 9 178 16 255 16 198 -1 234 6 572 110
53 16 37 2 -35 -30 -92 -41 -211 -74 -378 -104 -211 -38 -255 -48 -255 -57 0
-8 11 -7 145 13 39 6 102 13 140 16 44 3 73 10 78 19 9 16 37 19 37 4 0 -13
32 -13 79 -1 20 5 63 15 96 22 213 42 450 181 594 349 106 123 181 286 208
453 17 99 17 99 35 77 10 -12 18 -28 18 -36 0 -7 9 -19 20 -27 44 -31 78 -102
99 -211 36 -183 43 -313 39 -700 -3 -350 -4 -368 -22 -382 -11 -8 -32 -14 -48
-14 -32 0 -143 -52 -211 -98 -25 -18 -50 -32 -55 -32 -5 0 -30 -19 -56 -43
-46 -44 -58 -73 -32 -83 23 -9 129 51 197 111 62 54 178 121 198 114 6 -3 2
-26 -9 -59 -11 -30 -19 -65 -20 -76 0 -12 -9 -43 -19 -70 -11 -27 -29 -75 -41
-106 -19 -49 -26 -58 -48 -58 -13 0 -31 8 -38 18 -12 15 -13 15 -14 1 0 -22
-24 -40 -77 -59 -55 -19 -56 -36 -1 -33 l41 2 -33 -34 c-19 -19 -37 -35 -41
-35 -4 0 -13 13 -21 30 -7 17 -19 30 -27 30 -31 0 -136 -67 -208 -134 -43 -40
-86 -75 -95 -79 -23 -8 -142 -169 -178 -241 -43 -85 -38 -169 6 -102 13 21 19
23 40 15 14 -5 36 -6 50 -3 20 5 32 -5 22 -19 -2 -2 3 -11 11 -21 10 -12 17
-13 26 -6 14 12 25 -7 25 -41 0 -10 4 -19 9 -19 14 0 23 35 15 64 -5 20 -2 26
9 26 24 0 56 -47 73 -107 8 -29 19 -53 24 -53 5 0 6 33 3 73 -6 71 -6 72 14
55 11 -10 24 -18 30 -18 12 0 23 -33 23 -74 0 -24 2 -27 15 -16 12 10 15 9 15
-5 0 -14 3 -15 15 -5 15 12 15 76 0 100 -6 9 -2 9 12 1 11 -5 26 -24 33 -41 7
-16 16 -30 21 -30 10 0 5 67 -6 94 -13 31 28 3 66 -45 l32 -41 -11 -136 c-20
-239 -37 -353 -81 -542 -46 -201 -62 -253 -128 -410 -91 -218 -153 -338 -244
-476 -92 -137 -321 -429 -449 -573 -33 -36 -120 -136 -193 -221 -74 -85 -147
-164 -163 -176 -144 -103 -333 -145 -510 -113 -61 11 -135 34 -169 55 -32 19
-177 96 -219 116 -21 11 -57 36 -80 57 -22 21 -70 58 -106 81 -36 24 -87 62
-115 85 -27 23 -86 69 -130 102 -44 34 -98 79 -121 100 -22 21 -58 52 -79 68
-33 26 -94 77 -131 110 -6 6 -49 41 -95 80 -140 116 -397 384 -500 520 -117
155 -204 321 -238 456 -46 178 -63 283 -58 341 8 89 -9 186 -40 231 -34 49
-104 117 -120 117 -22 0 -14 -25 17 -55 42 -41 80 -111 80 -150 0 -39 -31 -81
-65 -87 -14 -3 -25 -2 -25 1 0 3 -36 30 -80 60 l-80 53 0 120 0 119 29 -20
c39 -28 75 -41 90 -31 9 5 3 14 -21 31 -18 12 -50 41 -70 63 l-38 41 0 125 c1
106 3 122 14 108 7 -10 18 -18 25 -18 18 0 13 29 -9 52 -11 12 -20 29 -20 37
0 9 -5 23 -10 31 -10 14 -11 -2295 -2 -2802 l3 -218 128 0 128 0 -2 40 c-1 22
2 40 6 40 5 0 9 -18 9 -40 l0 -40 164 0 c148 0 165 2 169 18 4 16 5 16 6 0 1
-17 17 -18 192 -18 176 0 190 1 186 18 -3 9 -8 40 -12 67 -3 28 -18 86 -32
130 -33 103 -115 267 -121 242 -4 -18 -5 -17 -18 2 -16 22 -34 28 -34 11 0 -5
13 -31 28 -57 31 -53 57 -127 66 -188 4 -27 -4 -12 -24 45 -16 47 -33 92 -38
100 -5 8 -28 51 -52 95 -24 44 -60 104 -79 134 -20 29 -40 61 -46 70 -5 9 -21
30 -35 48 -37 48 -83 108 -160 208 -38 50 -81 106 -96 125 -18 22 -20 28 -7
17 18 -15 53 -15 53 1 0 3 -18 29 -41 56 l-41 51 41 -43 c23 -23 44 -42 46
-42 15 0 0 27 -35 68 -40 45 -160 217 -160 229 0 3 10 -7 22 -23 12 -16 36
-45 54 -64 18 -19 46 -54 61 -77 15 -23 55 -70 89 -105 56 -58 136 -154 223
-268 19 -25 37 -47 40 -50 14 -11 151 -237 166 -272 8 -21 20 -38 25 -38 6 0
10 -10 10 -22 0 -12 6 -29 13 -37 8 -9 19 -36 26 -61 7 -25 28 -96 48 -158 19
-62 38 -134 42 -160 l6 -47 64 -3 c45 -2 67 1 72 10 7 10 9 10 9 1 0 -10 324
-13 1545 -13 850 0 1545 2 1545 5 0 3 -20 14 -45 25 -25 11 -45 22 -45 24 0 6
88 -27 121 -45 10 -5 106 -9 214 -9 191 1 196 2 173 19 -64 50 -183 118 -268
154 -111 46 -165 61 -275 77 -165 23 -163 29 10 25 158 -4 177 -7 263 -35 138
-46 236 -95 325 -163 35 -27 37 -28 37 -8 0 23 -98 93 -183 131 -23 11 -36 20
-29 20 7 0 54 -21 105 -47 50 -26 95 -49 98 -51 4 -2 7 39 8 91 l2 93 -46 23
c-79 39 -153 52 -350 61 -187 8 -192 9 -330 53 -77 24 -160 54 -185 67 -62 31
-163 116 -235 196 -83 93 -90 103 -76 117 8 8 16 5 28 -13 76 -108 244 -205
498 -285 170 -54 328 -95 365 -95 43 0 238 -57 285 -84 43 -24 45 -24 45 -5 0
36 -291 161 -435 188 l-50 9 44 1 c87 2 290 -67 409 -141 l32 -20 0 124 0 123
-132 22 c-126 20 -138 24 -263 88 -155 81 -187 105 -272 204 -107 126 -106
113 -20 244 76 116 138 237 187 367 16 41 42 107 59 147 35 86 80 253 120 453
40 196 51 298 52 476 1 171 6 190 42 156 36 -34 45 -26 10 11 -32 34 -48 67
-33 67 5 0 26 -9 47 -21 l38 -21 -32 28 c-17 16 -42 37 -55 46 l-23 17 28 1
c15 0 27 5 27 11 0 6 7 9 15 5 31 -12 13 13 -27 38 -24 14 -36 26 -28 27 8 1
2 4 -15 8 -33 7 -33 6 -15 96 19 92 27 108 53 102 34 -9 154 -18 140 -11 -24
11 -13 34 19 41 26 5 29 8 13 13 -14 5 -8 9 25 15 32 6 39 9 22 12 -12 3 -20
8 -17 13 3 5 -10 6 -30 3 -52 -8 -43 12 15 33 28 10 50 21 50 25 0 5 -25 -1
-57 -12 -31 -10 -58 -19 -60 -19 -3 0 18 18 46 40 36 28 51 47 50 63 -1 15 -3
17 -6 5 -5 -19 -111 -104 -119 -95 -3 3 10 20 30 38 44 38 116 158 115 191 0
18 -3 15 -14 -14 -32 -88 -164 -235 -139 -155 3 12 17 40 29 62 29 50 85 209
85 239 0 13 9 35 20 49 20 25 20 40 20 761 l0 736 -131 0 c-116 0 -130 -2
-125 -16 3 -9 9 -34 12 -57 l5 -42 -20 40 c-30 60 -45 75 -76 75 -21 0 -25 -3
-17 -12 11 -14 72 -163 72 -176 0 -4 -14 19 -30 51 -17 32 -41 76 -55 97 l-25
40 -123 0 -123 0 -12 -74 c-12 -76 -52 -190 -84 -238 -10 -14 -18 -30 -18 -35
0 -14 -119 -136 -186 -190 -109 -88 -331 -196 -501 -243 -97 -27 -227 -50
-273 -49 -32 0 -29 2 25 19 161 50 195 61 260 85 95 36 215 101 273 148 100
82 157 134 206 186 28 30 60 64 72 75 74 74 194 261 194 304 0 8 -19 12 -62
12 l-63 0 -19 -46 c-11 -26 -44 -79 -76 -118 -31 -39 -74 -93 -96 -121 -93
-118 -240 -235 -295 -235 -13 0 -36 -11 -51 -25 -15 -14 -30 -25 -33 -25 -3 0
-26 -10 -51 -21 -32 -15 -43 -26 -39 -37 4 -11 2 -12 -7 -4 -10 8 -42 -2 -123
-38 -61 -26 -150 -61 -200 -77 -91 -31 -105 -34 -325 -78 -137 -28 -209 -33
-120 -8 30 8 73 21 94 29 28 10 42 11 47 3 4 -8 13 -8 25 -1 11 5 37 13 59 16
150 27 441 154 622 272 28 19 54 34 57 34 4 0 21 13 39 29 17 16 57 48 87 70
82 62 254 235 299 304 46 67 49 77 24 77 -10 -1 -38 -28 -63 -61 -50 -68 -258
-277 -335 -336 -82 -64 -175 -124 -175 -114 0 5 8 12 18 15 9 3 31 18 48 33
17 16 56 50 87 76 112 97 287 287 327 354 l19 33 -71 0 -71 0 -81 -78 c-86
-83 -393 -317 -502 -383 -109 -66 -246 -137 -319 -165 -115 -43 -266 -94 -278
-94 -7 0 53 29 133 64 80 35 170 77 200 94 30 16 78 42 105 57 60 33 249 161
325 221 134 106 219 176 275 228 l60 56 -34 0 c-28 0 -46 -12 -105 -68 -39
-37 -116 -101 -170 -142 -245 -185 -349 -252 -556 -355 -192 -96 -214 -91 -30
6 67 36 179 113 200 138 9 10 26 24 39 30 30 16 51 34 129 106 172 158 253
247 240 260 -2 3 -29 -18 -59 -46 -126 -118 -269 -220 -493 -353 -70 -42 -129
-76 -131 -76 -2 0 -41 -18 -87 -39 -100 -47 -160 -72 -164 -68 -1 1 54 35 124
74 70 39 137 82 149 95 60 64 71 78 64 82 -5 3 -35 -14 -67 -38 -77 -56 -134
-90 -134 -79 0 4 21 19 48 33 26 14 59 36 74 50 15 14 74 66 131 115 57 50
100 92 95 93 -5 2 -64 -32 -131 -75 -67 -44 -144 -93 -172 -110 -63 -39 -230
-113 -255 -113 -10 0 -56 -16 -100 -36 -45 -19 -84 -34 -86 -31 -3 2 18 14 45
26 27 11 53 26 56 31 12 20 -9 13 -151 -51 -22 -10 -58 -24 -80 -33 -241 -90
-323 -116 -359 -115 -11 0 30 18 90 40 313 115 571 230 533 237 -10 2 -35 -5
-55 -16 -106 -55 -561 -227 -572 -216 -2 2 1 4 8 4 7 0 10 4 6 9 -3 5 5 13 17
17 20 6 74 29 226 96 77 33 153 60 159 55 5 -6 146 43 208 73 22 10 97 45 167
78 71 34 148 74 173 91 26 17 48 31 51 31 17 0 254 174 254 186 0 2 -11 4 -24
4 -13 0 -45 -17 -72 -39 -68 -53 -189 -133 -249 -163 -27 -14 -83 -42 -123
-62 -41 -21 -75 -36 -78 -34 -4 4 151 108 161 108 8 0 154 101 214 148 l53 42
-36 0 c-26 0 -58 -15 -121 -56 -47 -30 -142 -84 -212 -119 -121 -59 -157 -76
-270 -126 -27 -11 -62 -27 -80 -35 -17 -8 -34 -14 -37 -14 -4 0 -57 -23 -118
-51 -106 -48 -287 -113 -295 -106 -2 2 56 28 129 56 199 79 289 123 284 137
-3 7 9 18 25 24 16 7 29 17 29 22 0 6 -8 7 -18 3 -84 -34 -203 -76 -232 -81
-19 -4 -57 -15 -84 -26 -27 -10 -53 -17 -58 -16 -4 2 20 14 54 27 35 13 92 34
128 48 103 38 200 85 200 96 0 5 -7 6 -15 3 -45 -18 -45 -15 0 15 27 19 50 41
50 49 0 8 23 30 50 48 28 19 68 49 90 67 l40 34 -67 1 c-63 0 -74 -4 -195 -65
-142 -73 -208 -103 -363 -165 -58 -23 -114 -46 -125 -52 -25 -14 -257 -89
-261 -85 -2 2 65 29 149 61 178 68 297 123 297 136 0 14 -13 12 -36 -5 -10 -8
-31 -15 -45 -15 -15 0 -60 -13 -100 -29 -366 -146 -570 -223 -576 -218 -2 2
20 14 49 27 29 12 127 58 218 102 159 78 196 108 88 72 -54 -17 -319 -123
-373 -149 -16 -8 -79 -35 -140 -61 -60 -26 -145 -64 -187 -85 -43 -22 -78 -37
-78 -34 0 2 15 12 33 21 17 9 35 22 39 28 4 6 8 8 8 3 0 -4 18 4 40 18 22 14
62 34 89 45 27 10 80 35 118 54 91 46 143 69 281 122 65 24 136 53 160 64 23
11 47 20 52 20 5 0 61 25 125 55 65 30 119 55 122 55 3 0 19 6 36 14 135 61
133 59 110 63 -20 4 -176 -46 -260 -83 -17 -8 -37 -14 -45 -14 -7 0 -22 -6
-33 -13 -18 -13 -38 -21 -100 -42 -11 -3 22 16 74 43 51 28 98 55 104 61 23
23 -3 20 -64 -7 -35 -16 -156 -61 -269 -101 -113 -40 -272 -106 -355 -146 -82
-40 -151 -72 -152 -71 -5 4 279 186 291 186 4 0 26 13 49 28 23 16 74 45 112
64 39 20 95 49 125 64 l54 29 -70 3 c-66 3 -79 -1 -205 -54 -116 -49 -252
-120 -340 -177 -14 -9 -29 -14 -32 -10 -4 3 -17 -3 -30 -14 -12 -11 -71 -53
-132 -93 -60 -40 -143 -97 -183 -127 -41 -30 -76 -52 -79 -50 -4 5 44 47 152
134 86 69 145 113 150 113 3 0 34 19 68 42 34 24 71 48 82 54 11 6 79 44 150
84 72 39 137 79 145 87 13 13 8 15 -50 11 -75 -5 -164 -40 -315 -123 -54 -30
-100 -55 -102 -55 -1 0 0 6 3 14 3 8 0 17 -6 21 -10 6 13 21 187 122 l38 22
-123 1 c-120 0 -126 -1 -197 -34 -48 -22 -75 -30 -78 -23 -4 13 -47 -13 -152
-90 l-60 -44 54 50 c30 28 81 70 113 93 l59 43 -36 3 c-27 3 -46 -4 -77 -27
-53 -39 -70 -40 -33 -1 l29 30 -43 0 c-30 0 -53 -8 -79 -27 -26 -20 -32 -22
-19 -7 24 29 22 34 -18 34 l-34 0 -1 -608z m2190 234 c0 -2 -7 -7 -16 -10 -8
-3 -12 -2 -9 4 6 10 25 14 25 6z m1876 -43 c-29 -55 -65 -103 -66 -87 0 6 7
17 16 25 8 7 27 34 40 61 13 26 27 48 29 48 3 0 -6 -21 -19 -47z m-2489 -99
c-3 -3 -12 -4 -19 -1 -8 3 -5 6 6 6 11 1 17 -2 13 -5z m503 -44 c-8 -5 -19
-10 -25 -10 -5 0 -3 5 5 10 8 5 20 10 25 10 6 0 3 -5 -5 -10z m290 5 c0 -2
-13 -11 -30 -20 -38 -19 -40 -11 -2 9 31 17 32 18 32 11z m742 -26 c-29 -17
-56 -29 -59 -26 -5 6 85 56 102 56 6 0 -14 -13 -43 -30z m715 -24 c-45 -39
-186 -115 -214 -115 -23 1 38 35 88 50 19 5 61 30 93 55 68 53 88 59 33 10z
m-357 -15 c-27 -21 -45 -26 -35 -9 6 9 41 27 55 28 3 0 -6 -8 -20 -19z m-435
0 c-3 -5 -11 -10 -16 -10 -6 0 -7 5 -4 10 3 6 11 10 16 10 6 0 7 -4 4 -10z
m-865 -44 c0 -2 -7 -7 -16 -10 -8 -3 -12 -2 -9 4 6 10 25 14 25 6z m-580 -36
c0 -5 -12 -12 -27 -16 -16 -3 -50 -13 -76 -21 -27 -8 -50 -13 -53 -10 -3 2 30
16 73 30 43 14 79 25 81 26 1 1 2 -3 2 -9z m1941 -57 c-35 -13 -66 -22 -68
-19 -2 2 13 10 34 16 21 7 47 19 57 26 11 7 24 10 29 7 6 -4 -18 -17 -52 -30z
m-2260 -9 c-18 -8 -45 -14 -60 -12 -22 3 -19 6 19 15 63 15 81 14 41 -3z
m1746 -20 c-3 -3 -12 -4 -19 -1 -8 3 -5 6 6 6 11 1 17 -2 13 -5z m-65 -20
c-18 -8 -54 -17 -80 -19 l-47 -4 40 9 c22 5 54 14 70 19 45 14 54 11 17 -5z
m405 -10 c-3 -3 -12 -4 -19 -1 -8 3 -5 6 6 6 11 1 17 -2 13 -5z m-2113 -24
c-12 -5 -43 -11 -70 -14 l-49 -6 45 14 c25 7 56 14 70 14 24 1 24 0 4 -8z
m1993 -6 c-3 -3 -12 -4 -19 -1 -8 3 -5 6 6 6 11 1 17 -2 13 -5z m-40 -10 c-13
-13 -213 -29 -282 -23 -82 7 -71 9 95 15 68 3 126 7 129 10 2 2 18 4 34 4 17
0 27 -3 24 -6z m-2080 -10 c-3 -3 -12 -4 -19 -1 -8 3 -5 6 6 6 11 1 17 -2 13
-5z m1598 -13 c-11 -5 -72 -10 -135 -13 -63 -3 -108 -3 -100 -1 73 18 276 30
235 14z m-1872 -8 c-7 -2 -19 -2 -25 0 -7 3 -2 5 12 5 14 0 19 -2 13 -5z
m1227 -13 c-19 -11 -135 -38 -175 -40 -51 -3 -52 1 -5 16 82 27 215 45 180 24z
m2520 -61 c-6 -35 -14 -80 -19 -99 -17 -67 -12 10 6 92 20 93 28 97 13 7z
m-2152 54 c-10 -2 -26 -2 -35 0 -10 3 -2 5 17 5 19 0 27 -2 18 -5z m-61 -9
c-3 -3 -12 -4 -19 -1 -8 3 -5 6 6 6 11 1 17 -2 13 -5z m2269 -76 c-10 -90 -40
-193 -76 -263 -33 -65 -31 -46 5 55 31 87 41 122 56 203 7 37 15 67 17 67 3 0
1 -28 -2 -62z m-2959 36 c-3 -3 -12 -4 -19 -1 -8 3 -5 6 6 6 11 1 17 -2 13 -5z
m143 -3 c0 -10 -189 -75 -196 -68 -3 3 30 17 73 32 43 15 85 31 93 35 20 12
30 12 30 1z m-500 -16 c-129 -32 -293 -67 -405 -86 -164 -29 -495 -49 -435
-27 32 12 199 38 280 44 47 3 88 8 92 11 4 2 56 8 115 14 60 5 131 14 158 19
203 38 299 50 195 25z m295 4 c-16 -6 -61 -19 -100 -29 -38 -10 -92 -25 -120
-33 -27 -9 -70 -18 -95 -22 -25 -4 -112 -20 -194 -36 -166 -33 -223 -34 -76
-2 52 12 167 38 255 59 88 20 196 44 240 54 89 19 137 24 90 9z m-700 -159
c-11 -5 -31 -8 -45 -8 -23 0 -22 1 5 8 42 11 65 11 40 0z m620 -13 c-65 -45
-601 -204 -621 -185 -4 4 209 68 279 84 15 3 27 10 27 14 0 13 68 32 90 25 11
-4 20 -2 20 4 0 6 14 11 30 11 17 0 49 9 71 21 23 11 43 18 46 15 3 -3 15 1
27 9 11 8 27 15 35 15 11 0 10 -4 -4 -13z m-950 -17 c-28 -12 -78 -12 -70 0 3
6 25 10 48 9 33 0 38 -2 22 -9z m550 -6 c-27 -8 -57 -12 -65 -11 -8 2 5 8 30
14 66 16 93 14 35 -3z m-907 -273 c10 -6 12 -19 5 -49 l-8 -41 -17 50 c-16 49
-11 60 20 40z m87 -231 c10 -19 21 -37 26 -40 4 -3 0 -29 -10 -58 -18 -53 -31
-59 -31 -14 0 14 -9 57 -21 95 -14 48 -19 83 -15 110 11 65 21 66 27 2 3 -33
14 -76 24 -95z m45 -1 c0 -6 -4 -7 -10 -4 -5 3 -10 11 -10 16 0 6 5 7 10 4 6
-3 10 -11 10 -16z m3900 -192 c0 -13 -39 -51 -46 -44 -2 2 2 15 9 30 12 28 37
37 37 14z m-3853 -19 c-3 -8 -6 -5 -6 6 -1 11 2 17 5 13 3 -3 4 -12 1 -19z
m-10 -40 c-3 -8 -6 -5 -6 6 -1 11 2 17 5 13 3 -3 4 -12 1 -19z m-10 -55 c-3
-10 -5 -4 -5 12 0 17 2 24 5 18 2 -7 2 -21 0 -30z m3583 -8 c-21 -22 -36 -31
-39 -24 -2 7 9 23 25 36 44 35 52 27 14 -12z m668 18 c-10 -2 -28 -2 -40 0
-13 2 -5 4 17 4 22 1 32 -1 23 -4z m-8 -53 c-20 -13 -60 -13 -60 0 0 6 17 10
38 10 27 0 33 -3 22 -10z m-4253 -22 c-3 -8 -6 -5 -6 6 -1 11 2 17 5 13 3 -3
4 -12 1 -19z m3526 16 c3 -4 -19 -27 -49 -51 -30 -25 -57 -43 -59 -41 -6 5 83
98 94 98 4 0 10 -3 14 -6z m255 -83 c-3 -42 -13 -85 -26 -109 -11 -22 -26 -59
-32 -81 -12 -46 -59 -105 -99 -125 -30 -15 -148 -14 -225 3 -26 6 -51 9 -55 7
-11 -7 -43 22 -36 33 3 6 22 11 42 11 46 0 138 58 174 109 14 20 36 65 49 101
13 36 28 70 34 77 18 20 87 42 135 42 l44 1 -5 -69z m-277 -74 c-17 -17 -24
-1 -10 25 12 21 14 21 17 4 2 -10 -1 -23 -7 -29z m-21 -56 c0 -6 -4 -13 -10
-16 -5 -3 -10 1 -10 9 0 9 5 16 10 16 6 0 10 -4 10 -9z m665 -51 c3 -5 -3 -10
-14 -10 -11 0 -23 5 -26 10 -3 6 3 10 14 10 11 0 23 -4 26 -10z m-391 -136
c11 -4 16 -19 16 -51 0 -28 -4 -42 -11 -38 -6 4 -7 19 -4 35 5 22 1 31 -17 44
-22 16 -14 21 16 10z m-3846 -579 c-3 -3 -9 2 -12 12 -6 14 -5 15 5 6 7 -7 10
-15 7 -18z m-14 -72 c8 -29 13 -53 11 -53 -5 0 -55 111 -55 123 0 26 29 -22
44 -70z m-36 -88 c0 -5 -6 4 -13 20 -8 17 -14 37 -14 45 0 8 7 -1 14 -20 7
-19 13 -39 13 -45z m-182 -70 c35 -89 127 -264 212 -405 26 -41 -1 -9 -55 66
-28 39 -60 89 -71 110 -11 21 -43 84 -71 138 -33 64 -51 112 -51 134 0 44 2
42 36 -43z m274 -131 c0 -8 -5 -12 -10 -9 -6 4 -8 11 -5 16 9 14 15 11 15 -7z
m-109 -349 c113 -165 181 -253 187 -237 2 7 -7 27 -21 45 -43 57 -178 257
-173 257 2 0 62 -73 134 -162 71 -90 152 -186 179 -214 28 -29 70 -78 94 -110
23 -33 61 -80 84 -105 104 -118 372 -555 352 -575 -3 -3 -8 5 -12 18 -10 33
-37 61 -45 47 -4 -6 -22 17 -40 53 -85 164 -260 397 -418 556 -39 41 -100 106
-135 145 -34 40 -70 78 -79 85 -10 7 -18 19 -18 26 0 8 -7 19 -15 26 -42 35
-205 281 -233 354 -45 111 -40 114 19 11 28 -50 91 -148 140 -220z m187 170
c-3 -3 -9 2 -12 12 -6 14 -5 15 5 6 7 -7 10 -15 7 -18z m-338 -829 c0 -12 -5
-7 -19 24 -11 24 -11 24 3 6 9 -11 16 -24 16 -30z m3556 1 c51 -79 194 -182
336 -242 75 -33 82 -42 17 -25 -78 20 -221 100 -290 162 -31 28 -99 116 -99
129 0 18 15 8 36 -24z m-76 -123 c19 -25 74 -82 121 -128 92 -88 182 -142 284
-171 33 -10 94 -29 135 -43 68 -23 91 -26 250 -27 149 -1 187 -5 255 -24 77
-22 121 -40 100 -41 -5 0 -32 8 -60 17 -41 14 -94 17 -300 18 -228 1 -257 3
-330 24 -170 49 -338 154 -445 278 -77 90 -87 108 -71 127 19 22 22 21 61 -30z
m-3323 -134 c35 -81 116 -315 128 -367 6 -29 4 -32 -11 -26 -15 6 -16 0 -10
-55 5 -41 3 -63 -4 -67 -7 -4 -9 -17 -6 -30 3 -13 0 -27 -8 -34 -11 -9 -14 8
-19 97 -9 145 -31 280 -62 382 -15 47 -33 108 -42 135 -8 28 -18 55 -23 60 -4
6 -10 24 -14 40 -5 24 -1 21 17 -15 12 -25 37 -79 54 -120z m-138 63 c44 -127
71 -232 70 -278 0 -35 -5 -25 -36 70 -19 61 -44 132 -54 159 -16 42 -27 136
-15 136 2 0 18 -39 35 -87z m3397 10 c15 -20 23 -33 16 -29 -13 8 -56 66 -49
66 3 0 17 -17 33 -37z m174 -181 c8 -8 -6 0 -33 18 -26 19 -59 50 -74 69 -22
30 -16 27 33 -18 32 -30 66 -61 74 -69z m467 72 c-3 -3 -12 -4 -19 -1 -8 3 -5
6 6 6 11 1 17 -2 13 -5z m-761 -65 c52 -41 54 -44 19 -26 -40 22 -83 57 -69
57 6 0 29 -14 50 -31z m1014 -16 c41 -9 69 -18 62 -20 -14 -5 -160 23 -194 37
-30 13 27 5 132 -17z m-1099 -19 c27 -24 187 -90 252 -104 103 -21 54 -21 -64
1 -106 19 -259 65 -259 77 0 10 33 42 43 42 6 0 18 -7 28 -16z m-3196 -104 c9
-51 14 -98 12 -104 -2 -6 -7 11 -11 37 -4 27 -14 67 -22 89 -17 48 -19 97 -4
82 6 -6 17 -52 25 -104z m478 -135 c18 -45 41 -164 33 -173 -11 -10 -16 4 -41
99 -13 52 -28 110 -34 129 -6 19 -11 37 -11 40 0 9 35 -55 53 -95z m-484 -127
c1 -33 -3 -58 -9 -58 -6 0 -10 38 -9 98 1 78 3 89 10 57 4 -22 8 -66 8 -97z
m839 77 c0 -16 -2 -15 -8 5 -11 34 -11 60 0 35 5 -11 8 -29 8 -40z m3338 20
c17 -7 35 -18 39 -24 8 -13 -41 5 -91 33 -26 15 -27 16 -4 10 14 -3 39 -12 56
-19z m455 -6 c23 -11 39 -23 36 -25 -5 -5 -87 35 -87 42 0 8 11 4 51 -17z
m-4344 -71 c-2 -13 -4 -3 -4 22 0 25 2 35 4 23 2 -13 2 -33 0 -45z m3110 36
c-3 -3 -12 -4 -19 -1 -8 3 -5 6 6 6 11 1 17 -2 13 -5z m291 -1 c-10 -2 -28 -2
-40 0 -13 2 -5 4 17 4 22 1 32 -1 23 -4z m85 -10 c-7 -2 -19 -2 -25 0 -7 3 -2
5 12 5 14 0 19 -2 13 -5z m-2534 -53 c0 -9 -4 -8 -9 5 -5 11 -9 27 -9 35 0 9
4 8 9 -5 5 -11 9 -27 9 -35z m3099 26 c26 -14 56 -32 67 -40 11 -9 -11 0 -50
20 -77 41 -82 44 -71 44 4 0 28 -11 54 -24z m-1013 -6 c-16 -4 -48 -8 -70 -8
-34 0 -36 1 -15 8 14 4 45 8 70 8 40 0 42 -1 15 -8z m675 -20 c39 -12 70 -23
68 -25 -6 -6 -168 44 -168 51 0 4 6 4 14 1 7 -3 46 -15 86 -27z m-2753 -42
c-3 -8 -6 -5 -6 6 -1 11 2 17 5 13 3 -3 4 -12 1 -19z"/>
<path d="M2570 4260 c-13 -8 -13 -10 2 -10 9 0 20 5 23 10 8 13 -5 13 -25 0z"/>
<path d="M1979 3896 c-2 -2 -44 -7 -94 -10 -140 -8 -276 -29 -272 -40 5 -14
54 -13 226 3 168 16 374 10 471 -14 195 -50 329 -103 425 -170 55 -38 123 -75
140 -75 4 0 21 -6 38 -14 29 -13 49 -19 156 -46 19 -5 39 -7 43 -4 19 12 5 44
-29 72 -84 65 -458 225 -588 252 -33 6 -80 16 -105 21 -97 20 -397 38 -411 25z"/>
<path d="M231 3738 c-1 -31 4 -60 9 -63 6 -3 10 -15 10 -27 0 -11 12 -47 27
-80 28 -64 28 -63 -13 -170 -10 -26 -15 -50 -11 -54 8 -8 43 31 59 66 10 23
12 19 19 -39 5 -35 6 -68 3 -72 -3 -5 0 -27 6 -50 11 -39 9 -47 -22 -107 -40
-80 -41 -119 -4 -222 58 -159 76 -260 46 -260 -4 0 -10 9 -13 20 -3 11 -12 20
-21 20 -25 0 -21 -56 6 -74 32 -23 54 -20 78 11 18 23 20 35 15 78 -8 60 -30
142 -55 210 -11 28 -24 70 -29 95 -9 41 -7 50 19 97 33 59 38 108 15 153 -10
19 -14 58 -14 118 0 50 -4 98 -10 109 -16 27 -51 122 -51 137 0 7 -15 47 -34
87 l-35 74 0 -57z"/>
<path d="M2134 3446 c3 -13 9 -31 12 -40 6 -15 -3 -17 -70 -15 -68 2 -81 5
-113 30 -37 30 -56 32 -33 4 20 -24 7 -28 -77 -26 -62 2 -82 6 -99 22 -28 26
-57 26 -49 -1 6 -19 2 -20 -79 -20 -83 0 -111 -11 -63 -25 12 -4 47 -21 77
-38 65 -37 48 -48 -29 -17 -28 11 -60 20 -69 20 -10 0 -35 9 -57 20 -62 32
-93 22 -37 -12 15 -10 21 -18 15 -18 -25 0 -13 -28 17 -42 17 -7 30 -18 30
-23 0 -6 16 -17 35 -24 19 -7 35 -18 35 -25 0 -16 31 -26 83 -26 42 0 49 -16
12 -30 -27 -10 -33 -25 -12 -33 9 -3 12 -16 9 -36 l-4 -31 58 -1 c33 0 53 -3
47 -6 -7 -2 -13 -10 -13 -17 0 -7 -13 -22 -30 -34 -16 -13 -30 -29 -30 -37 0
-21 14 -19 34 4 23 26 99 52 117 40 11 -6 7 -15 -17 -41 -48 -50 -71 -108 -44
-108 6 0 10 7 10 16 0 20 66 84 86 84 8 0 13 -4 9 -9 -3 -5 -1 -12 5 -16 6 -4
4 -15 -6 -31 -20 -30 -11 -43 14 -21 10 10 21 14 24 11 4 -3 15 -1 26 5 20 11
20 9 15 -47 -6 -52 -5 -56 10 -44 9 8 19 22 22 33 4 10 15 24 26 30 18 9 20 7
17 -18 -2 -18 1 -27 10 -25 9 1 11 -8 6 -37 -9 -59 12 -59 27 0 14 54 27 46
28 -18 1 -42 21 -44 21 -3 0 38 27 93 43 87 7 -2 16 -13 22 -25 5 -12 16 -22
23 -22 8 0 23 -10 33 -22 l20 -23 -6 50 -6 50 35 -49 c20 -27 36 -58 36 -68 0
-10 7 -18 16 -18 12 0 15 11 13 55 -3 64 5 79 22 41 14 -30 29 -34 29 -8 0 13
5 10 17 -10 20 -32 43 -40 68 -22 16 12 17 17 5 41 -24 47 -24 49 5 23 19 -17
29 -21 32 -12 7 19 21 14 28 -9 4 -12 12 -18 21 -15 8 3 17 -1 20 -9 4 -8 10
-15 15 -15 16 0 9 20 -16 47 -24 26 -27 49 -3 25 7 -7 21 -12 31 -12 11 0 26
-8 33 -17 17 -24 29 -10 14 16 -10 19 -8 21 25 21 61 0 41 28 -37 51 -31 9
-44 17 -38 23 15 15 12 46 -4 46 -8 0 -17 -14 -21 -31 -4 -19 -15 -33 -27 -37
-10 -2 -17 -10 -14 -17 3 -9 -3 -9 -25 2 -16 8 -37 12 -47 9 -39 -13 -245 -23
-309 -16 -101 11 -150 27 -191 63 -20 18 -50 41 -65 51 -47 29 -22 30 37 1 49
-24 64 -27 116 -22 33 4 69 11 80 17 10 6 23 9 27 8 24 -6 58 21 115 94 l63
80 60 -5 c67 -6 151 -38 171 -65 7 -9 21 -39 30 -67 18 -53 78 -135 99 -135 7
0 26 -7 41 -15 32 -17 70 -20 78 -6 3 5 -5 12 -19 15 -18 5 -25 14 -26 31 -2
42 -4 45 -18 54 -8 5 0 8 23 7 47 -1 49 17 2 25 -54 9 -53 16 6 22 57 6 108
24 108 40 0 8 -9 7 -62 -10 -10 -3 -18 0 -18 6 0 6 6 11 13 11 8 0 22 9 32 20
18 19 17 20 -62 13 -70 -5 -81 -4 -87 12 -7 20 6 32 72 66 24 13 46 27 49 32
12 19 -9 18 -53 -3 -66 -31 -114 -38 -114 -16 0 9 -6 16 -12 16 -8 0 -5 7 6
15 27 20 12 31 -21 16 l-28 -13 23 22 c21 20 29 40 16 40 -3 0 -19 -8 -35 -17
-28 -17 -31 -17 -63 1 -26 14 -32 22 -28 42 5 30 -13 32 -28 3 -8 -13 -17 -18
-28 -14 -51 19 -167 44 -231 49 -40 4 -78 9 -83 12 -6 4 -16 22 -24 40 -16 39
-39 47 -30 10z m-371 -98 c18 -13 34 -24 36 -25 2 -2 2 -6 -2 -9 -7 -8 -145
34 -152 47 -4 5 14 9 40 9 31 0 56 -7 78 -22z m197 -8 c16 -17 25 -30 22 -30
-20 0 -88 24 -114 39 l-29 18 47 1 c39 1 51 -3 74 -28z m70 -11 l35 -31 -31
15 c-17 9 -36 23 -43 31 -22 27 2 17 39 -15z m155 11 c34 -38 5 -44 -69 -14
-36 14 -66 28 -66 30 0 2 26 4 58 4 46 0 63 -4 77 -20z m162 -1 c43 -6 80 -13
82 -15 12 -11 -35 -44 -63 -44 -22 0 -27 3 -17 9 8 5 11 16 8 25 -6 15 -31 17
-52 4 -6 -4 -17 -3 -25 2 -7 4 -19 6 -25 4 -7 -3 -15 2 -18 10 -8 19 4 20 110
5z m128 -38 c3 -6 -4 -15 -15 -21 -20 -11 -21 -10 -10 9 12 23 16 25 25 12z
m73 -17 c31 -9 27 -21 -9 -29 -35 -8 -42 -4 -33 19 7 18 9 18 42 10z m-268
-90 c0 -6 -7 -17 -16 -25 -18 -15 -47 -2 -52 24 -2 11 5 15 32 14 21 -1 36 -6
36 -13z m-310 -18 c0 -44 -39 -63 -59 -29 -7 13 -5 21 7 30 23 17 52 16 52 -1z
m-220 -6 c0 -5 -2 -10 -4 -10 -3 0 -8 5 -11 10 -3 6 -1 10 4 10 6 0 11 -4 11
-10z m55 -1 c11 -17 -1 -21 -15 -4 -8 9 -8 15 -2 15 6 0 14 -5 17 -11z m283
-47 c43 3 47 1 50 -21 2 -15 0 -21 -7 -16 -6 3 -18 -1 -27 -10 -12 -12 -19
-13 -30 -4 -7 6 -18 8 -24 4 -5 -3 -10 1 -10 9 0 10 -9 16 -25 16 -14 0 -25 6
-25 13 0 22 11 27 32 16 10 -5 40 -9 66 -7z m-238 -22 c0 -5 -4 -10 -10 -10
-5 0 -10 5 -10 10 0 6 5 10 10 10 6 0 10 -4 10 -10z m-75 -10 c-3 -5 -19 -10
-36 -10 -16 0 -29 5 -29 10 0 6 16 10 36 10 21 0 33 -4 29 -10z"/>
<path d="M267 2871 c-3 -11 0 -40 5 -65 8 -37 15 -47 34 -52 32 -8 41 1 21 23
-8 10 -18 32 -22 48 -12 55 -16 65 -25 65 -4 0 -10 -9 -13 -19z"/>
<path d="M3755 1798 c-8 -18 -45 -63 -82 -100 -54 -53 -82 -72 -136 -93 -37
-14 -84 -25 -104 -25 -28 0 -75 -19 -111 -46 -8 -5 10 -44 20 -44 5 0 23 11
40 25 16 14 39 25 51 25 73 0 307 111 307 145 0 6 11 31 25 57 26 49 32 88 14
88 -5 0 -16 -15 -24 -32z"/>
<path d="M3170 1678 c-44 -12 -58 -24 -43 -39 7 -7 21 -6 48 5 43 18 138 12
156 -10 6 -8 15 -14 20 -14 13 0 11 44 -3 58 -14 14 -128 15 -178 0z"/>
<path d="M3387 1295 c-15 -13 -43 -27 -62 -31 -34 -6 -50 -34 -20 -34 43 0
125 50 125 77 0 19 -11 16 -43 -12z"/>
<path d="M3571 1254 c-42 -32 -91 -50 -63 -22 16 16 16 48 0 48 -7 0 -26 -13
-43 -29 -33 -32 -143 -83 -219 -102 -50 -12 -85 -8 -190 23 -32 10 -68 7 -235
-20 -256 -42 -282 -45 -312 -33 -30 11 -72 -5 -77 -30 -4 -23 24 -31 42 -13
12 11 20 12 35 5 19 -11 152 -1 251 18 189 36 262 44 293 33 18 -6 62 -17 100
-23 59 -11 74 -10 125 5 31 10 74 27 94 37 22 11 58 19 89 19 28 0 66 7 83 15
42 20 100 80 92 94 -10 16 -16 14 -65 -25z"/>
<path d="M3199 1257 c15 -18 61 -23 61 -7 0 6 -6 10 -12 10 -7 0 -24 3 -38 7
-22 6 -24 5 -11 -10z"/>
<path d="M3282 865 c-80 -67 -295 -110 -413 -84 -49 11 -58 6 -36 -19 10 -10
14 -22 10 -25 -3 -4 3 -7 15 -7 12 0 22 -6 22 -12 0 -14 47 -20 155 -21 46 0
78 7 138 33 43 18 81 40 85 49 3 9 21 31 39 50 18 18 33 37 33 41 0 21 -21 18
-48 -5z"/>
</g>
</svg>
